<svg xmlns="http://www.w3.org/2000/svg" width="18.709" height="22.5" viewBox="0 0 18.709 22.5">
  <path id="корзина" d="M36.2,21.081,34.865,6.173a.79.79,0,0,0-.786-.719H31.317V4.208a4.208,4.208,0,1,0-8.416,0V5.454H20.139a.79.79,0,0,0-.786.719L18.008,21.14a.79.79,0,0,0,.786.86h16.63a.79.79,0,0,0,.79-.79A.8.8,0,0,0,36.2,21.081ZM24.481,4.208a2.629,2.629,0,1,1,5.258,0V5.454H24.481ZM19.658,20.421l1.2-13.388H22.9V8.445a.79.79,0,0,0,1.579,0V7.033h5.258V8.445a.79.79,0,1,0,1.579,0V7.033h2.039l1.2,13.388h-14.9Z" transform="translate(-17.754 0.25)" fill="#222220" stroke="#222220" stroke-width="0.5"/>
</svg>
