<svg xmlns="http://www.w3.org/2000/svg" width="16.171" height="16.171" viewBox="0 0 16.171 16.171">
  <g id="XMLID_747_" transform="translate(0.25 0.25)">
    <g id="Group_11" data-name="Group 11">
      <g id="Group_10" data-name="Group 10">
        <path id="Path_31" data-name="Path 31" d="M7.835,0a7.835,7.835,0,1,0,7.835,7.835A7.835,7.835,0,0,0,7.835,0Zm4.816,12.652A6.811,6.811,0,0,1,3.019,3.019a6.811,6.811,0,0,1,9.633,9.633Z" fill="#0c0c0c" stroke="#0c0c0c" stroke-width="0.5"/>
        <path id="Path_32" data-name="Path 32" d="M183.365,64.309H181.55a1.752,1.752,0,0,0-1.121-1.077v-3.72a.512.512,0,1,0-1.024,0v3.715a1.744,1.744,0,1,0,2.192,2.107h1.769a.512.512,0,1,0,0-1.024Zm-3.457,1.341a.754.754,0,1,1,.754-.754A.755.755,0,0,1,179.908,65.65Z" transform="translate(-172.081 -56.986)" fill="#0c0c0c" stroke="#0c0c0c" stroke-width="0.5"/>
      </g>
    </g>
  </g>
</svg>
