<svg xmlns="http://www.w3.org/2000/svg" width="23.014" height="22.055" viewBox="0 0 23.014 22.055">
  <g id="дата" transform="translate(0 -10.666)">
    <g id="Group_15" data-name="Group 15" transform="translate(0 10.666)">
      <g id="Group_14" data-name="Group 14">
        <path id="Path_39" data-name="Path 39" d="M22.055,12.584H20.932a2.877,2.877,0,0,0-5.425,0H14.219a2.877,2.877,0,0,0-5.425,0H7.507a2.877,2.877,0,0,0-5.425,0H.959A.959.959,0,0,0,0,13.543V31.762a.959.959,0,0,0,.959.959h21.1a.959.959,0,0,0,.959-.959V13.543A.959.959,0,0,0,22.055,12.584ZM1.918,14.5h.959a.959.959,0,0,0,.959-.959.959.959,0,1,1,.959.959.959.959,0,1,0,0,1.918A2.877,2.877,0,0,0,7.507,14.5H9.589a.959.959,0,0,0,.959-.959.959.959,0,1,1,.959.959.959.959,0,1,0,0,1.918A2.877,2.877,0,0,0,14.219,14.5H16.3a.959.959,0,0,0,.959-.959.959.959,0,1,1,.959.959.959.959,0,1,0,0,1.918A2.877,2.877,0,0,0,20.932,14.5H21.1v2.877H1.918Zm0,16.3V19.3H21.1V30.8Z" transform="translate(0 -10.666)" fill="#8b8b8a"/>
        <path id="Path_40" data-name="Path 40" d="M107.626,266.667a.959.959,0,1,0,.959.959A.959.959,0,0,0,107.626,266.667Z" transform="translate(-101.872 -255.16)" fill="#8b8b8a"/>
        <path id="Path_41" data-name="Path 41" d="M235.626,266.667a.959.959,0,1,0,.959.959A.959.959,0,0,0,235.626,266.667Z" transform="translate(-224.119 -255.16)" fill="#8b8b8a"/>
        <path id="Path_42" data-name="Path 42" d="M363.626,266.667a.959.959,0,1,0,.959.959A.959.959,0,0,0,363.626,266.667Z" transform="translate(-346.366 -255.16)" fill="#8b8b8a"/>
        <path id="Path_43" data-name="Path 43" d="M107.626,373.333a.959.959,0,1,0,.959.959A.959.959,0,0,0,107.626,373.333Z" transform="translate(-101.872 -357.032)" fill="#8b8b8a"/>
        <path id="Path_44" data-name="Path 44" d="M235.626,373.333a.959.959,0,1,0,.959.959A.959.959,0,0,0,235.626,373.333Z" transform="translate(-224.119 -357.032)" fill="#8b8b8a"/>
        <path id="Path_45" data-name="Path 45" d="M363.626,373.333a.959.959,0,1,0,.959.959A.959.959,0,0,0,363.626,373.333Z" transform="translate(-346.366 -357.032)" fill="#8b8b8a"/>
      </g>
    </g>
  </g>
</svg>
