<svg xmlns="http://www.w3.org/2000/svg" width="21.906" height="22.002" viewBox="0 0 21.906 22.002">
  <g id="редактировать" transform="translate(-0.757)">
    <path id="Path_51" data-name="Path 51" d="M109.429.741,109.4.717a2.741,2.741,0,0,0-3.873.175l-9.8,10.726a.946.946,0,0,0-.2.339L94.382,15.41a1.313,1.313,0,0,0,1.244,1.729h0a1.308,1.308,0,0,0,.527-.111l3.335-1.459a.945.945,0,0,0,.319-.229l9.8-10.726A2.745,2.745,0,0,0,109.429.741ZM96.589,14.772l.676-2.026.057-.062,1.281,1.17-.057.062ZM108.208,3.339l-8.329,9.118L98.6,11.287l8.329-9.118a.849.849,0,0,1,1.2-.054l.026.024A.85.85,0,0,1,108.208,3.339Z" transform="translate(-87.657)" fill="#222220"/>
    <path id="Path_52" data-name="Path 52" d="M19.871,38.958a.946.946,0,0,0-.946.946v8.031a2.408,2.408,0,0,1-2.406,2.406H5.055a2.408,2.408,0,0,1-2.406-2.406V36.564a2.408,2.408,0,0,1,2.406-2.406h8.3a.946.946,0,1,0,0-1.892h-8.3a4.3,4.3,0,0,0-4.3,4.3V47.935a4.3,4.3,0,0,0,4.3,4.3H16.519a4.3,4.3,0,0,0,4.3-4.3V39.9A.946.946,0,0,0,19.871,38.958Z" transform="translate(0 -30.231)" fill="#222220"/>
  </g>
</svg>
