<svg xmlns="http://www.w3.org/2000/svg" width="15.54" height="16" viewBox="0 0 15.54 16">
  <g id="XMLID_78_" transform="translate(-7.095)">
    <g id="XMLID_79_" transform="translate(7.095)">
      <g id="XMLID_80_" transform="translate(0)">
        <path id="XMLID_81_" d="M18.3,14.626a.629.629,0,0,1-.377.774,9.644,9.644,0,0,1-3.661.6A6.984,6.984,0,0,1,7.095,8.759,8.49,8.49,0,0,1,15.693,0c4.045,0,6.942,2.782,6.942,6.644,0,3.356-1.885,5.471-4.367,5.471a1.8,1.8,0,0,1-1.977-1.77h-.046a3.374,3.374,0,0,1-2.965,1.77c-1.495,0-2.574-1.1-2.574-2.988A5.249,5.249,0,0,1,16.083,3.77,7.566,7.566,0,0,1,17.9,4a1.061,1.061,0,0,1,.783,1.2l-.55,3.4c-.229,1.356-.068,1.977.575,2,.988.023,2.23-1.241,2.23-3.885C20.934,3.724,19,1.4,15.44,1.4c-3.517,0-6.6,2.758-6.6,7.149,0,3.839,2.459,6.023,5.885,6.023a8.073,8.073,0,0,0,2.622-.429.742.742,0,0,1,.956.479ZM16.4,5.882a.221.221,0,0,0-.178-.25,2.734,2.734,0,0,0-.505-.046A3.035,3.035,0,0,0,13,8.851c0,.874.39,1.425,1.149,1.425.851,0,1.747-1.08,1.955-2.414Z" transform="translate(-7.095)" fill="#0c0c0c"/>
      </g>
    </g>
  </g>
</svg>
