<svg id="_003-facebook-logo" data-name="003-facebook-logo" xmlns="http://www.w3.org/2000/svg" width="8.921" height="16.5" viewBox="0 0 8.921 16.5">
  <path id="Path_23" data-name="Path 23" d="M30.662,0l-2.14,0a3.758,3.758,0,0,0-3.957,4.061V5.933H22.413a.336.336,0,0,0-.336.337V8.982a.336.336,0,0,0,.336.336h2.151v6.845a.336.336,0,0,0,.336.336h2.807a.336.336,0,0,0,.336-.336V9.319H30.56a.336.336,0,0,0,.336-.336V6.27a.337.337,0,0,0-.337-.337H28.045V4.346c0-.763.182-1.15,1.175-1.15h1.441A.336.336,0,0,0,31,2.859V.34A.337.337,0,0,0,30.662,0Z" transform="translate(-22.077)" fill="#0c0c0c"/>
</svg>
