<svg id="information_2_" data-name="information (2)" xmlns="http://www.w3.org/2000/svg" width="15.988" height="15.988" viewBox="0 0 15.988 15.988">
  <path id="Path_35" data-name="Path 35" d="M7.994,0a7.994,7.994,0,1,0,7.994,7.994A8,8,0,0,0,7.994,0Zm0,14.535a6.541,6.541,0,1,1,6.541-6.541A6.548,6.548,0,0,1,7.994,14.535Z" fill="#8b8b8a"/>
  <path id="Path_36" data-name="Path 36" d="M145.971,70a.969.969,0,1,0,.969.969A.97.97,0,0,0,145.971,70Z" transform="translate(-137.977 -66.609)" fill="#8b8b8a"/>
  <path id="Path_37" data-name="Path 37" d="M150.727,140a.727.727,0,0,0-.727.727v4.36a.727.727,0,0,0,1.453,0v-4.36A.727.727,0,0,0,150.727,140Z" transform="translate(-142.733 -133.217)" fill="#8b8b8a"/>
</svg>
