<svg id="инф" xmlns="http://www.w3.org/2000/svg" width="21.998" height="21.998" viewBox="0 0 21.998 21.998">
  <path id="Path_35" data-name="Path 35" d="M11,0A11,11,0,1,0,22,11,11.012,11.012,0,0,0,11,0Zm0,20a9,9,0,1,1,9-9A9.009,9.009,0,0,1,11,20Z" fill="#222220"/>
  <path id="Path_36" data-name="Path 36" d="M146.335,70a1.333,1.333,0,1,0,1.333,1.334A1.335,1.335,0,0,0,146.335,70Z" transform="translate(-135.336 -65.334)" fill="#222220"/>
  <path id="Path_37" data-name="Path 37" d="M151,140a1,1,0,0,0-1,1v6a1,1,0,1,0,2,0v-6A1,1,0,0,0,151,140Z" transform="translate(-140.001 -130.667)" fill="#222220"/>
</svg>
