<svg id="_002-instagram" data-name="002-instagram" xmlns="http://www.w3.org/2000/svg" width="16.5" height="16.5" viewBox="0 0 16.5 16.5">
  <path id="Path_21" data-name="Path 21" d="M11.585,0H4.915A4.921,4.921,0,0,0,0,4.915v6.669A4.921,4.921,0,0,0,4.915,16.5h6.669A4.921,4.921,0,0,0,16.5,11.585V4.915A4.921,4.921,0,0,0,11.585,0ZM14.84,11.585a3.256,3.256,0,0,1-3.256,3.256H4.915A3.256,3.256,0,0,1,1.66,11.585V4.915A3.256,3.256,0,0,1,4.915,1.66h6.669A3.256,3.256,0,0,1,14.84,4.915v6.669Z" fill="#0c0c0c"/>
  <path id="Path_22" data-name="Path 22" d="M137.252,133a4.252,4.252,0,1,0,4.252,4.252A4.257,4.257,0,0,0,137.252,133Zm0,6.851a2.6,2.6,0,1,1,2.6-2.6A2.6,2.6,0,0,1,137.252,139.851Z" transform="translate(-129.002 -129.002)" fill="#0c0c0c"/>
  <circle id="Ellipse_2" data-name="Ellipse 2" cx="1.026" cy="1.026" r="1.026" transform="translate(11.497 2.99)" fill="#0c0c0c"/>
</svg>
