<svg xmlns="http://www.w3.org/2000/svg" width="15.636" height="15.518" viewBox="0 0 15.636 15.518">
  <g id="телефон" transform="translate(0.742 0.356)">
    <g id="Group_13" data-name="Group 13" transform="translate(0 0.394)">
      <g id="Group_12" data-name="Group 12" transform="translate(0 0)">
        <path id="Path_33" data-name="Path 33" d="M13.717,11.467,11.55,9.3a1.13,1.13,0,0,0-1.593.03L8.865,10.421,8.65,10.3A10.864,10.864,0,0,1,6.024,8.4a10.925,10.925,0,0,1-1.9-2.631C4.08,5.7,4.041,5.628,4,5.561l.733-.732.36-.361a1.129,1.129,0,0,0,.029-1.593L2.958.708a1.129,1.129,0,0,0-1.593.03l-.611.614.017.017a3.532,3.532,0,0,0-.5.888,3.68,3.68,0,0,0-.224.9c-.286,2.372.8,4.54,3.74,7.482,4.066,4.066,7.344,3.759,7.485,3.744a3.661,3.661,0,0,0,.9-.227,3.52,3.52,0,0,0,.884-.5l.013.012.619-.606A1.131,1.131,0,0,0,13.717,11.467Z" transform="translate(0 -0.394)" fill="none" stroke="#0c0c0c" stroke-width="1.5"/>
      </g>
    </g>
  </g>
</svg>
