<svg xmlns="http://www.w3.org/2000/svg" width="21.739" height="23" viewBox="0 0 21.739 23">
  <g id="поделиться" transform="translate(0.5 0.5)">
    <path id="Path_26" data-name="Path 26" d="M30.6,14.134a3.937,3.937,0,0,0-3.115,1.535l-6.044-3.376a3.946,3.946,0,0,0,.219-1.3,3.86,3.86,0,0,0-.224-1.3l6.039-3.371a3.929,3.929,0,1,0-.813-2.389,3.84,3.84,0,0,0,.224,1.3L20.853,8.606a3.929,3.929,0,1,0,.009,4.774L26.9,16.756a3.931,3.931,0,1,0,3.7-2.622Zm0-12.9a2.7,2.7,0,1,1-2.7,2.7A2.7,2.7,0,0,1,30.6,1.238ZM17.738,13.7a2.7,2.7,0,1,1,2.7-2.7A2.7,2.7,0,0,1,17.738,13.7ZM30.6,20.762a2.7,2.7,0,1,1,2.7-2.7A2.7,2.7,0,0,1,30.6,20.762Z" transform="translate(-13.8)" fill="#8b8b8a" stroke="#8b8b8a" stroke-width="1"/>
  </g>
</svg>
