<svg xmlns="http://www.w3.org/2000/svg" width="19.716" height="23" viewBox="0 0 19.716 23">
  <g id="Group_2" data-name="Group 2" transform="translate(0.501 0.5)">
    <path id="Path_12" data-name="Path 12" d="M141.757,11.854h.146a4.2,4.2,0,0,0,3.212-1.39c1.754-1.977,1.462-5.367,1.431-5.69a4.648,4.648,0,0,0-2.21-4.132A5.065,5.065,0,0,0,141.884,0h-.077a5.073,5.073,0,0,0-2.451.624,4.651,4.651,0,0,0-2.237,4.15c-.032.323-.323,3.713,1.431,5.69A4.187,4.187,0,0,0,141.757,11.854Zm-3.421-6.966c0-.014,0-.027,0-.036.15-3.267,2.469-3.617,3.462-3.617h.055c1.23.027,3.321.528,3.462,3.617a.088.088,0,0,0,0,.036c0,.032.323,3.13-1.125,4.761a2.986,2.986,0,0,1-2.346.975h-.046a2.976,2.976,0,0,1-2.342-.975C138.021,8.027,138.331,4.916,138.335,4.888Z" transform="translate(-132.48)" fill="#222220" stroke="#222220" stroke-width="1"/>
    <path id="Path_13" data-name="Path 13" d="M54.785,264.91V264.9c0-.036,0-.073,0-.114-.027-.9-.087-3.011-2.064-3.686l-.046-.014a13.147,13.147,0,0,1-3.781-1.722.615.615,0,1,0-.706,1.007,14.189,14.189,0,0,0,4.159,1.9c1.062.378,1.18,1.513,1.212,2.551a.917.917,0,0,0,0,.114,8.269,8.269,0,0,1-.1,1.408,16.766,16.766,0,0,1-8.032,1.868,16.863,16.863,0,0,1-8.036-1.872,7.829,7.829,0,0,1-.1-1.408c0-.036,0-.073,0-.114.032-1.039.15-2.173,1.212-2.551a14.322,14.322,0,0,0,4.159-1.9.615.615,0,1,0-.706-1.007,13,13,0,0,1-3.781,1.722l-.046.014c-1.977.679-2.036,2.788-2.064,3.686a.915.915,0,0,1,0,.114v.014a6.986,6.986,0,0,0,.232,2.064.585.585,0,0,0,.237.287,17.232,17.232,0,0,0,8.893,2.178,17.284,17.284,0,0,0,8.893-2.178.61.61,0,0,0,.237-.287A7.33,7.33,0,0,0,54.785,264.91Z" transform="translate(-36.073 -247.434)" fill="#222220" stroke="#222220" stroke-width="1"/>
  </g>
</svg>
