<svg id="_001-vk-social-network-logo" data-name="001-vk-social-network-logo" xmlns="http://www.w3.org/2000/svg" width="15.774" height="9" viewBox="0 0 15.774 9">
  <path id="Path_20" data-name="Path 20" d="M15.691,125.876a1.083,1.083,0,0,0-.053-.1,8.176,8.176,0,0,0-1.569-1.815l-.016-.016-.008-.008-.008-.008h-.008q-.526-.5-.665-.674a.632.632,0,0,1-.115-.665,6.2,6.2,0,0,1,.739-1.076q.337-.435.534-.7,1.421-1.889,1.232-2.415l-.049-.082a.48.48,0,0,0-.254-.136,1.293,1.293,0,0,0-.526-.02l-2.365.016a.307.307,0,0,0-.164,0l-.107.025-.041.021-.033.025a.365.365,0,0,0-.09.086.564.564,0,0,0-.082.144,13.411,13.411,0,0,1-.879,1.848q-.3.509-.559.883a4.248,4.248,0,0,1-.427.55,2.98,2.98,0,0,1-.312.283q-.14.107-.213.09l-.14-.033a.546.546,0,0,1-.185-.2.9.9,0,0,1-.094-.32q-.025-.193-.029-.333t0-.394q.009-.255.008-.345,0-.312.012-.678t.021-.579q.008-.214.008-.452a1.9,1.9,0,0,0-.029-.374,1.278,1.278,0,0,0-.086-.263.443.443,0,0,0-.168-.2.949.949,0,0,0-.275-.111,5.466,5.466,0,0,0-1.109-.107,5.388,5.388,0,0,0-1.963.2,1.106,1.106,0,0,0-.312.246q-.148.181-.041.2a1.007,1.007,0,0,1,.7.353l.049.1a1.571,1.571,0,0,1,.115.378,3.812,3.812,0,0,1,.074.6,6.393,6.393,0,0,1,0,1.027q-.041.427-.078.665a1.332,1.332,0,0,1-.111.386,1.63,1.63,0,0,1-.1.181.141.141,0,0,1-.041.041.615.615,0,0,1-.222.041.521.521,0,0,1-.279-.115,1.97,1.97,0,0,1-.341-.316,4.227,4.227,0,0,1-.4-.563q-.222-.361-.46-.854l-.131-.238q-.123-.23-.337-.669t-.378-.85a.541.541,0,0,0-.2-.263l-.041-.025a.562.562,0,0,0-.131-.07.872.872,0,0,0-.189-.053l-2.25.016a.572.572,0,0,0-.468.156l-.033.049A.266.266,0,0,0,0,118.5a.654.654,0,0,0,.049.222q.493,1.158,1.072,2.234t1.006,1.733q.427.657.871,1.24t.587.747q.144.164.226.246l.205.2a4.873,4.873,0,0,0,.579.472,9.875,9.875,0,0,0,.846.542,4.589,4.589,0,0,0,1.08.435,3.735,3.735,0,0,0,1.2.136h.945a.654.654,0,0,0,.435-.181l.033-.041a.545.545,0,0,0,.062-.152.834.834,0,0,0,.029-.226,2.706,2.706,0,0,1,.053-.636,1.674,1.674,0,0,1,.14-.427,1.05,1.05,0,0,1,.177-.242.713.713,0,0,1,.14-.119.537.537,0,0,1,.065-.029.521.521,0,0,1,.464.127,2.725,2.725,0,0,1,.5.476q.234.283.563.636a3.866,3.866,0,0,0,.575.526l.164.1a2,2,0,0,0,.427.181.921.921,0,0,0,.46.041l2.1-.033a.953.953,0,0,0,.485-.1.407.407,0,0,0,.205-.226.636.636,0,0,0,0-.279A1.031,1.031,0,0,0,15.691,125.876Z" transform="translate(0 -117.748)" fill="#0c0c0c"/>
</svg>
