<svg xmlns="http://www.w3.org/2000/svg" width="26.062" height="23.136" viewBox="0 0 26.062 23.136">
  <g id="Group_9" data-name="Group 9" transform="translate(0.521 0.5)">
    <g id="Group_8" data-name="Group 8" transform="translate(0 0)">
      <path id="Path_29" data-name="Path 29" d="M24.782,49.013,14.036,30.4a1.761,1.761,0,0,0-3.051,0L.239,49.013a1.761,1.761,0,0,0,1.525,2.642H23.257a1.761,1.761,0,0,0,1.525-2.642ZM23.511,50.04a.284.284,0,0,1-.254.147H1.764a.294.294,0,0,1-.254-.44L12.256,31.134a.294.294,0,0,1,.508,0L23.511,49.747A.284.284,0,0,1,23.511,50.04Z" transform="translate(0 -29.519)" fill="#222220" stroke="#222220" stroke-width="1"/>
      <rect id="Rectangle_90" data-name="Rectangle 90" width="1.468" height="7.829" transform="translate(11.777 6.674)" fill="#222220" stroke="#222220" stroke-width="1"/>
      <circle id="Ellipse_4" data-name="Ellipse 4" cx="0.979" cy="0.979" r="0.979" transform="translate(11.532 15.971)" fill="#222220" stroke="#222220" stroke-width="1"/>
    </g>
  </g>
</svg>
