<svg xmlns="http://www.w3.org/2000/svg" width="282.532" height="110.96" viewBox="0 0 282.532 110.96">
  <path id="Path_671" data-name="Path 671" d="M4.583,50.81H-1.96l.134-12.151H6.319L8.188,24.372H-1.559l.134-12.418H10.191L14.33-20.092H28.484L24.345,11.954H35.427L39.7-20.092H53.72L49.447,11.954h6.276L55.59,24.372H47.578L45.709,38.659h9.614L55.056,50.81H43.973l-4.94,37.254H24.879l4.94-37.254H18.737L13.93,88.064H-.224ZM31.555,38.659l1.869-14.287H22.342l-2,14.287Zm72.433,22.833H71.542V45.736L99.716-20.092h21.5V46.8H132.3V61.492H121.213V88.064H103.988Zm0-14.688V-.2L86.9,46.8Zm72.567,42.862q-13.753,0-20.964-8.546t-7.21-22.833V10.352q0-14.821,6.943-23.233t21.231-8.412q14.02,0,21.1,8.479t7.077,23.167V58.287q0,14.287-7.21,22.833T176.555,89.666Zm0-15.89q9.48,0,9.48-15.756v-47.4A29.334,29.334,0,0,0,184.1-.931Q182.163-5.4,176.555-5.4q-5.742,0-7.611,4.473a30.272,30.272,0,0,0-1.869,11.55v47.4a27.1,27.1,0,0,0,2.07,11.149Q171.214,73.776,176.555,73.776Zm75.709-12.284H219.818V45.736l28.174-65.828h21.5V46.8h11.083V61.492H269.489V88.064H252.265Zm0-14.688V-.2l-17.091,47Z" transform="translate(1.96 21.294)" fill="#0a0a0a"/>
</svg>
