<svg id="Слой_2" data-name="Слой 2" xmlns="http://www.w3.org/2000/svg" width="158.518" height="30" viewBox="0 0 158.518 30">
  <g id="Layer_1" data-name="Layer 1" transform="translate(0 0)">
    <path id="Path_1" data-name="Path 1" d="M18.153,7.377a12.248,12.248,0,0,0-3.22-.326c-4.9,0-5.361,2.705-5.361,7.7s.454,8.2,5.528,8.2a11.925,11.925,0,0,0,3.384-.409l.537,6.841A24.04,24.04,0,0,1,13.246,30C3.218,30,0,26.272,0,15,0,4.1,3.177,0,13.45,0a18.824,18.824,0,0,1,5.2.533Z" transform="translate(0 0)" fill="#fff"/>
    <path id="Path_2" data-name="Path 2" d="M104.54,30C95.712,30,92,25.824,92,15S95.672,0,104.54,0c8.79,0,12.545,4.1,12.545,15S113.33,30,104.54,30Zm0-22.949c-2.472,0-2.97,2.129-2.97,7.991s.5,7.91,2.97,7.91c2.438,0,2.983-2.047,2.983-7.91s-.546-7.991-2.983-7.991Z" transform="translate(-72.396 0)" fill="#fff"/>
    <path id="Path_3" data-name="Path 3" d="M231.422,3.1c8.7,0,11.057,4.181,11.057,14.1,0,10.242-2.434,14.584-11.223,14.584H218.47V3.1Zm-3.8,21.757h2.146c2.1,0,3.137-1.187,3.137-7.459s-1.065-7.372-3.137-7.372h-2.146Z" transform="translate(-172.281 -2.439)" fill="#fff"/>
    <path id="Path_4" data-name="Path 4" d="M558.51,3.1V9.818H549.1V14h8.168v6.56H549.1v4.465h9.529v6.759H540.15V3.1Z" transform="translate(-425.917 -2.439)" fill="#fff"/>
    <path id="Path_5" data-name="Path 5" d="M649.164,3.1c8.7,0,11.057,4.181,11.057,14.1,0,10.242-2.433,14.584-11.226,14.584H636.21V3.1Zm-3.793,21.757H647.5c2.1,0,3.135-1.187,3.135-7.459s-1.065-7.372-3.135-7.372h-2.131Z" transform="translate(-501.703 -2.439)" fill="#fff"/>
    <path id="Path_6" data-name="Path 6" d="M348.812,25.02V20.555h8.051L357.606,14V14h-8.794V9.818h9.272l.761-6.71V3.1H339.86V31.779h15.728l.767-6.759Z" transform="translate(-267.987 -2.439)" fill="#fff"/>
    <path id="Path_7" data-name="Path 7" d="M445.458,23.71c-1.2-3.6-2.393-4.672-3.88-4.96v-.083c3.426-.366,5.114-2.457,5.114-7.783,0-6.841-3.256-7.785-8.281-7.785H427.43l-3.26,28.679h9.163V22.316h.948c1.319,0,1.775.163,2.4,2.539l1.813,6.922h9.7Zm-10.6-7.7h-1.526V9.493h1.692c1.319,0,2.344.212,2.344,3.115C437.371,15.352,436.382,16.008,434.854,16.008Z" transform="translate(-334.493 -2.439)" fill="#fff"/>
  </g>
</svg>
